<svg version="1.0" xmlns="http://www.w3.org/2000/svg"
 width="920pt" height="512pt" viewBox="0 0 920 512"
 preserveAspectRatio="xMidYMid meet">

<g transform="translate(0,512) scale(0.1,-0.1)"
fill='current' stroke="none">
<path d="M4420 5094 c-467 -43 -880 -187 -1250 -436 -144 -97 -232 -173 -391
-335 -161 -164 -222 -239 -322 -395 -368 -576 -491 -1259 -347 -1923 79 -366
268 -761 497 -1045 74 -91 324 -340 413 -412 78 -62 253 -177 370 -242 238
-134 566 -240 872 -282 150 -21 630 -15 758 10 547 105 969 320 1338 680 178
175 252 260 349 406 496 747 578 1634 228 2447 -255 592 -782 1108 -1370 1341
-202 80 -413 136 -627 167 -102 15 -432 27 -518 19z m660 -3369 l-825 -825
-212 213 c-117 116 -216 216 -220 220 -4 4 265 280 597 612 l605 605 -605 605
-605 605 220 220 220 220 825 -825 825 -825 -825 -825z"/>
</g>
</svg>
