<svg width="current" height="current" viewBox="0 0 24 24" fill="none" xmlns="http://www.w3.org/2000/svg" preserveAspectRatio="xMidYMid meet"><path d="M20 6.75C20.4142 6.75 20.75 6.41421 20.75 6C20.75 5.58579 20.4142 5.25 20 5.25V6.75ZM4 5.25C3.58579 5.25 3.25 5.58579 3.25 6C3.25 6.41421 3.58579 6.75 4 6.75V5.25ZM10.75 10C10.75 9.58579 10.4142 9.25 10 9.25C9.58579 9.25 9.25 9.58579 9.25 10H10.75ZM9.25 17C9.25 17.4142 9.58579 17.75 10 17.75C10.4142 17.75 10.75 17.4142 10.75 17H9.25ZM13.25 17C13.25 17.4142 13.5858 17.75 14 17.75C14.4142 17.75 14.75 17.4142 14.75 17H13.25ZM14.75 10C14.75 9.58579 14.4142 9.25 14 9.25C13.5858 9.25 13.25 9.58579 13.25 10H14.75ZM6 6.75H18V5.25H6V6.75ZM17.25 6V19H18.75V6H17.25ZM16 20.25H8V21.75H16V20.25ZM6.75 19V6H5.25V19H6.75ZM8.75 6V4H7.25V6H8.75ZM9 3.75H15V2.25H9V3.75ZM15.25 4V6H16.75V4H15.25ZM18 6.75H20V5.25H18V6.75ZM6 5.25H4V6.75H6V5.25ZM9.25 10V17H10.75V10H9.25ZM14.75 17V10H13.25V17H14.75ZM15 3.75C15.1381 3.75 15.25 3.86193 15.25 4H16.75C16.75 3.0335 15.9665 2.25 15 2.25V3.75ZM8.75 4C8.75 3.86193 8.86193 3.75 9 3.75V2.25C8.0335 2.25 7.25 3.0335 7.25 4H8.75ZM8 20.25C7.30964 20.25 6.75 19.6904 6.75 19H5.25C5.25 20.5188 6.48122 21.75 8 21.75V20.25ZM17.25 19C17.25 19.6904 16.6904 20.25 16 20.25V21.75C17.5188 21.75 18.75 20.5188 18.75 19H17.25Z" fill="#EB5038"></path></svg>