<svg version="1.0" xmlns="http://www.w3.org/2000/svg"
 width="current" height="auto" viewBox="0 0 582 200">
<g transform="translate(0,200) scale(0.1,-0.1)"
fill="#000000" stroke="none">
<path  d="M150 1994 c0 -7 -139 -623 -146 -646 -5 -16 5 -18 105 -18 61 0 111
-2 111 -4 0 -8 -30 -151 -36 -168 -5 -17 8 -18 185 -18 107 0 191 -4 191 -9 0
-8 -221 -1061 -234 -1113 -4 -17 16 -18 302 -18 l307 0 120 568 120 567 192 3
c106 1 193 4 193 6 0 2 18 88 40 191 22 103 40 194 40 201 0 12 -71 14 -435
14 -239 0 -435 3 -435 6 0 6 89 401 96 427 5 16 -17 17 -355 17 -199 0 -361
-3 -361 -6z"/>
<path d="M2184 1086 c-86 -20 -159 -59 -227 -125 l-60 -56 7 40 c3 22 9 59 13
83 l6 42 -191 0 -190 0 -6 -27 c-3 -16 -8 -48 -11 -73 -5 -36 -149 -733 -185
-893 l-8 -37 196 2 196 3 67 319 c37 176 75 339 84 362 44 114 202 172 274
100 45 -45 41 -103 -33 -452 -36 -171 -66 -316 -66 -323 0 -8 55 -11 193 -11
l193 0 42 203 c24 111 54 256 68 321 14 66 34 141 46 168 51 119 199 167 271
88 42 -47 37 -108 -38 -463 -36 -169 -65 -309 -65 -312 0 -3 88 -5 195 -5 107
0 195 2 195 5 0 2 34 163 75 358 83 390 90 458 54 537 -45 101 -128 151 -259
158 -48 2 -112 -1 -143 -8 -79 -16 -181 -69 -248 -129 l-57 -50 -5 29 c-9 43
-70 104 -128 130 -65 28 -173 34 -255 16z"/>
<path d="M3839 1080 c-165 -34 -285 -115 -334 -223 -45 -99 -56 -92 151 -95
l181 -2 17 44 c10 25 35 61 57 80 35 33 45 36 97 36 48 0 62 -4 80 -23 25 -26
29 -81 11 -151 l-11 -44 -171 -5 c-148 -4 -184 -8 -262 -31 -108 -33 -164 -63
-228 -125 -120 -114 -158 -318 -82 -432 69 -105 315 -136 471 -59 34 17 86 52
115 78 l52 47 -7 -40 c-4 -22 -10 -52 -13 -67 l-5 -28 189 0 190 0 7 82 c3 46
36 225 73 398 73 352 75 377 23 449 -36 49 -102 89 -189 113 -89 24 -292 24
-412 -2z m206 -582 c-13 -58 -44 -140 -67 -175 -52 -76 -159 -114 -226 -79
-39 20 -52 44 -52 96 0 67 36 118 110 155 55 28 79 33 163 34 l79 1 -7 -32z"/>
<path d="M4680 1066 c0 -3 43 -110 95 -238 52 -128 95 -239 95 -246 0 -11
-311 -383 -433 -520 l-20 -22 199 0 199 0 124 188 c78 117 126 181 129 172 3
-8 22 -91 42 -185 l37 -170 226 -3 c125 -1 227 -1 227 1 0 2 -52 122 -115 267
-63 144 -111 268 -108 274 4 6 96 115 205 243 109 127 198 234 198 237 0 3
-87 6 -192 6 l-193 0 -100 -154 c-55 -86 -103 -150 -106 -143 -3 7 -19 76 -34
155 l-29 142 -223 0 c-123 0 -223 -2 -223 -4z"/>
</g>
</svg>
